<svg width="302" height="43" viewBox="0 0 302 43" fill="none" xmlns="http://www.w3.org/2000/svg">
<path d="M6.85529 25H5.21173V14.1455L1.9422 15.3496V13.8818L6.6004 12.1328H6.85529V25ZM20.3813 25H11.9877V23.8398L16.1801 19.1729C16.7016 18.5986 17.103 18.1123 17.3842 17.7139C17.6713 17.3096 17.8706 16.9463 17.9819 16.624C18.0932 16.3018 18.1489 15.9736 18.1489 15.6396C18.1489 15.0068 17.9555 14.4678 17.5688 14.0225C17.1879 13.5713 16.643 13.3457 15.934 13.3457C15.3598 13.3457 14.8823 13.457 14.5014 13.6797C14.1264 13.9023 13.8452 14.21 13.6577 14.6025C13.476 14.9951 13.3852 15.4492 13.3852 15.9648H11.7417C11.7417 15.2441 11.8999 14.585 12.2163 13.9873C12.5327 13.3896 13.0014 12.915 13.6225 12.5635C14.2495 12.2061 15.02 12.0273 15.934 12.0273C17.1411 12.0273 18.0844 12.3408 18.7641 12.9678C19.4497 13.5947 19.7924 14.4209 19.7924 15.4463C19.7924 15.9502 19.684 16.457 19.4672 16.9668C19.2504 17.4766 18.9604 17.9834 18.5971 18.4873C18.2338 18.9854 17.8325 19.4717 17.393 19.9463L13.9653 23.6816H20.3813V25ZM29.4245 25H27.7195V12.2031H29.4245V25ZM34.7771 19.3398H29.0554V17.9688H34.7771V19.3398ZM35.6472 13.583H29.0554V12.2031H35.6472V13.583ZM41.7289 25.1758C40.8441 25.1758 40.0736 24.9795 39.4174 24.5869C38.767 24.1885 38.2601 23.6436 37.8968 22.9521C37.5394 22.2607 37.3607 21.4697 37.3607 20.5791V20.2012C37.3607 19.1699 37.557 18.291 37.9496 17.5645C38.348 16.832 38.8636 16.2754 39.4965 15.8945C40.1351 15.5078 40.809 15.3145 41.5179 15.3145C42.432 15.3145 43.1761 15.5195 43.7504 15.9297C44.3304 16.334 44.7552 16.8877 45.0248 17.5908C45.3002 18.2881 45.4379 19.0791 45.4379 19.9639V20.6934H38.3363V19.375H43.7943V19.252C43.7709 18.8301 43.6859 18.4199 43.5394 18.0215C43.3929 17.6172 43.1586 17.2861 42.8363 17.0283C42.514 16.7646 42.0746 16.6328 41.5179 16.6328C41.0258 16.6328 40.5892 16.7734 40.2084 17.0547C39.8334 17.3301 39.5375 17.7344 39.3207 18.2676C39.1097 18.7949 39.0043 19.4395 39.0043 20.2012V20.5791C39.0043 21.1826 39.1156 21.7334 39.3383 22.2314C39.5609 22.7236 39.8832 23.1191 40.305 23.418C40.7269 23.7109 41.2308 23.8574 41.8168 23.8574C42.391 23.8574 42.8773 23.7402 43.2758 23.5059C43.6742 23.2715 44.0228 22.958 44.3217 22.5654L45.3148 23.3389C45.0101 23.8076 44.5707 24.2324 43.9965 24.6133C43.4281 24.9883 42.6722 25.1758 41.7289 25.1758ZM49.3399 11.5V23.1543L49.1992 25H47.6963V11.5H49.3399ZM55.7559 20.3506C55.7559 21.2764 55.6123 22.1025 55.3252 22.8291C55.0381 23.5557 54.6192 24.1299 54.0684 24.5518C53.5176 24.9678 52.8496 25.1758 52.0645 25.1758C51.2559 25.1758 50.582 24.9941 50.043 24.6309C49.5039 24.2617 49.085 23.7432 48.7861 23.0752C48.4873 22.4014 48.291 21.6045 48.1973 20.6846V19.832C48.291 18.9004 48.4873 18.0977 48.7861 17.4238C49.085 16.75 49.501 16.2314 50.0342 15.8682C50.5733 15.499 51.2442 15.3145 52.0469 15.3145C52.8438 15.3145 53.5176 15.5166 54.0684 15.9209C54.6192 16.3252 55.0381 16.8936 55.3252 17.626C55.6123 18.3525 55.7559 19.1992 55.7559 20.166V20.3506ZM54.1123 20.166C54.1123 19.5332 54.0332 18.9531 53.875 18.4258C53.7168 17.8926 53.4561 17.4678 53.0928 17.1514C52.7354 16.835 52.249 16.6768 51.6338 16.6768C51.2295 16.6768 50.875 16.7471 50.5703 16.8877C50.2715 17.0283 50.0166 17.2188 49.8057 17.459C49.5947 17.6934 49.4219 17.9629 49.2871 18.2676C49.1582 18.5664 49.0615 18.877 48.9971 19.1992V21.335C49.0908 21.7451 49.2432 22.1406 49.4541 22.5215C49.6651 22.8965 49.9492 23.2041 50.3067 23.4443C50.6699 23.6846 51.1182 23.8047 51.6514 23.8047C52.2373 23.8047 52.709 23.6494 53.0664 23.3389C53.4297 23.0225 53.6934 22.6035 53.8574 22.082C54.0274 21.5605 54.1123 20.9834 54.1123 20.3506V20.166ZM71.2151 25H62.8216V23.8398L67.014 19.1729C67.5354 18.5986 67.9368 18.1123 68.2181 17.7139C68.5052 17.3096 68.7044 16.9463 68.8157 16.624C68.927 16.3018 68.9827 15.9736 68.9827 15.6396C68.9827 15.0068 68.7893 14.4678 68.4026 14.0225C68.0218 13.5713 67.4768 13.3457 66.7679 13.3457C66.1936 13.3457 65.7161 13.457 65.3352 13.6797C64.9602 13.9023 64.679 14.21 64.4915 14.6025C64.3099 14.9951 64.219 15.4492 64.219 15.9648H62.5755C62.5755 15.2441 62.7337 14.585 63.0501 13.9873C63.3665 13.3896 63.8352 12.915 64.4563 12.5635C65.0833 12.2061 65.8538 12.0273 66.7679 12.0273C67.9749 12.0273 68.9183 12.3408 69.5979 12.9678C70.2835 13.5947 70.6263 14.4209 70.6263 15.4463C70.6263 15.9502 70.5179 16.457 70.3011 16.9668C70.0843 17.4766 69.7942 17.9834 69.431 18.4873C69.0677 18.9854 68.6663 19.4717 68.2268 19.9463L64.7991 23.6816H71.2151V25ZM81.3398 19.542C81.3398 20.9307 81.1757 22.0381 80.8476 22.8643C80.5253 23.6846 80.0624 24.2764 79.4589 24.6396C78.8554 24.9971 78.1406 25.1758 77.3144 25.1758C76.4999 25.1758 75.788 24.9971 75.1786 24.6396C74.5693 24.2764 74.0947 23.6846 73.7548 22.8643C73.4208 22.0381 73.2538 20.9307 73.2538 19.542V17.582C73.2538 16.1875 73.4179 15.0859 73.746 14.2773C74.08 13.4688 74.5488 12.8916 75.1523 12.5459C75.7617 12.2002 76.4765 12.0273 77.2968 12.0273C78.123 12.0273 78.8378 12.2002 79.4413 12.5459C80.0449 12.8916 80.5107 13.4688 80.8388 14.2773C81.1728 15.0859 81.3398 16.1875 81.3398 17.582V19.542ZM79.6962 17.3096C79.6962 16.3486 79.6054 15.5781 79.4238 14.998C79.2421 14.418 78.9726 13.999 78.6152 13.7412C78.2577 13.4775 77.8183 13.3457 77.2968 13.3457C76.7812 13.3457 76.3447 13.4775 75.9872 13.7412C75.6298 13.999 75.3574 14.418 75.1699 14.998C74.9882 15.5781 74.8974 16.3486 74.8974 17.3096V19.7969C74.8974 20.752 74.9911 21.5283 75.1786 22.126C75.3661 22.7236 75.6386 23.1631 75.996 23.4443C76.3593 23.7197 76.7988 23.8574 77.3144 23.8574C77.8417 23.8574 78.2812 23.7197 78.6327 23.4443C78.9843 23.1631 79.248 22.7236 79.4238 22.126C79.6054 21.5283 79.6962 20.752 79.6962 19.7969V17.3096ZM92.1851 25H83.7916V23.8398L87.984 19.1729C88.5054 18.5986 88.9068 18.1123 89.1881 17.7139C89.4752 17.3096 89.6744 16.9463 89.7857 16.624C89.897 16.3018 89.9527 15.9736 89.9527 15.6396C89.9527 15.0068 89.7593 14.4678 89.3726 14.0225C88.9918 13.5713 88.4468 13.3457 87.7379 13.3457C87.1636 13.3457 86.6861 13.457 86.3052 13.6797C85.9302 13.9023 85.649 14.21 85.4615 14.6025C85.2799 14.9951 85.189 15.4492 85.189 15.9648H83.5455C83.5455 15.2441 83.7037 14.585 84.0201 13.9873C84.3365 13.3896 84.8052 12.915 85.4263 12.5635C86.0533 12.2061 86.8238 12.0273 87.7379 12.0273C88.9449 12.0273 89.8883 12.3408 90.5679 12.9678C91.2535 13.5947 91.5963 14.4209 91.5963 15.4463C91.5963 15.9502 91.4879 16.457 91.2711 16.9668C91.0543 17.4766 90.7642 17.9834 90.4009 18.4873C90.0377 18.9854 89.6363 19.4717 89.1968 19.9463L85.7691 23.6816H92.1851V25ZM102.31 19.542C102.31 20.9307 102.146 22.0381 101.818 22.8643C101.495 23.6846 101.032 24.2764 100.429 24.6396C99.8254 24.9971 99.1106 25.1758 98.2844 25.1758C97.4699 25.1758 96.758 24.9971 96.1486 24.6396C95.5393 24.2764 95.0647 23.6846 94.7248 22.8643C94.3908 22.0381 94.2238 20.9307 94.2238 19.542V17.582C94.2238 16.1875 94.3879 15.0859 94.716 14.2773C95.05 13.4688 95.5188 12.8916 96.1223 12.5459C96.7317 12.2002 97.4465 12.0273 98.2668 12.0273C99.093 12.0273 99.8078 12.2002 100.411 12.5459C101.015 12.8916 101.481 13.4688 101.809 14.2773C102.143 15.0859 102.31 16.1875 102.31 17.582V19.542ZM100.666 17.3096C100.666 16.3486 100.575 15.5781 100.394 14.998C100.212 14.418 99.9426 13.999 99.5852 13.7412C99.2277 13.4775 98.7883 13.3457 98.2668 13.3457C97.7512 13.3457 97.3147 13.4775 96.9572 13.7412C96.5998 13.999 96.3274 14.418 96.1399 14.998C95.9582 15.5781 95.8674 16.3486 95.8674 17.3096V19.7969C95.8674 20.752 95.9611 21.5283 96.1486 22.126C96.3361 22.7236 96.6086 23.1631 96.966 23.4443C97.3293 23.7197 97.7688 23.8574 98.2844 23.8574C98.8117 23.8574 99.2512 23.7197 99.6027 23.4443C99.9543 23.1631 100.218 22.7236 100.394 22.126C100.575 21.5283 100.666 20.752 100.666 19.7969V17.3096Z" fill="black" fill-opacity="0.7"/>
<path d="M163.749 25L163.766 23.6289H166.421C167.329 23.6289 168.088 23.4385 168.697 23.0576C169.307 22.6709 169.764 22.1318 170.068 21.4404C170.379 20.7432 170.534 19.9258 170.534 18.9883V18.1973C170.534 17.2188 170.379 16.3867 170.068 15.7012C169.764 15.0156 169.315 14.4912 168.724 14.1279C168.132 13.7646 167.414 13.583 166.57 13.583H163.696V12.2031H166.57C167.695 12.2031 168.68 12.4492 169.523 12.9414C170.373 13.4277 171.035 14.1221 171.51 15.0244C171.984 15.9209 172.222 16.9844 172.222 18.2148V18.9883C172.222 20.2246 171.984 21.291 171.51 22.1875C171.035 23.084 170.364 23.7783 169.497 24.2705C168.63 24.7568 167.604 25 166.421 25H163.749ZM164.663 25H162.958V12.2031H164.663V25ZM178.831 25.1758C177.946 25.1758 177.175 24.9795 176.519 24.5869C175.869 24.1885 175.362 23.6436 174.999 22.9521C174.641 22.2607 174.462 21.4697 174.462 20.5791V20.2012C174.462 19.1699 174.659 18.291 175.051 17.5645C175.45 16.832 175.965 16.2754 176.598 15.8945C177.237 15.5078 177.911 15.3145 178.62 15.3145C179.534 15.3145 180.278 15.5195 180.852 15.9297C181.432 16.334 181.857 16.8877 182.126 17.5908C182.402 18.2881 182.54 19.0791 182.54 19.9639V20.6934H175.438V19.375H180.896V19.252C180.873 18.8301 180.788 18.4199 180.641 18.0215C180.495 17.6172 180.26 17.2861 179.938 17.0283C179.616 16.7646 179.176 16.6328 178.62 16.6328C178.127 16.6328 177.691 16.7734 177.31 17.0547C176.935 17.3301 176.639 17.7344 176.422 18.2676C176.211 18.7949 176.106 19.4395 176.106 20.2012V20.5791C176.106 21.1826 176.217 21.7334 176.44 22.2314C176.663 22.7236 176.985 23.1191 177.407 23.418C177.829 23.7109 178.333 23.8574 178.918 23.8574C179.493 23.8574 179.979 23.7402 180.377 23.5059C180.776 23.2715 181.125 22.958 181.423 22.5654L182.417 23.3389C182.112 23.8076 181.672 24.2324 181.098 24.6133C180.53 24.9883 179.774 25.1758 178.831 25.1758ZM190.335 22.4775C190.335 22.2432 190.282 22.0264 190.177 21.8271C190.077 21.6221 189.872 21.4375 189.562 21.2734C189.251 21.1035 188.782 20.9541 188.155 20.8252C187.452 20.6787 186.843 20.4941 186.327 20.2715C185.818 20.043 185.422 19.7529 185.141 19.4014C184.865 19.0498 184.728 18.6133 184.728 18.0918C184.728 17.5879 184.871 17.1279 185.158 16.7119C185.451 16.29 185.861 15.9531 186.389 15.7012C186.922 15.4434 187.543 15.3145 188.252 15.3145C189.014 15.3145 189.664 15.4492 190.203 15.7188C190.748 15.9824 191.164 16.3398 191.451 16.791C191.738 17.2363 191.882 17.7314 191.882 18.2764H190.238C190.238 17.8838 190.066 17.5117 189.72 17.1602C189.38 16.8086 188.891 16.6328 188.252 16.6328C187.807 16.6328 187.444 16.7031 187.162 16.8438C186.887 16.9785 186.685 17.1543 186.556 17.3711C186.433 17.582 186.371 17.8047 186.371 18.0391C186.371 18.2734 186.43 18.4785 186.547 18.6543C186.664 18.8242 186.878 18.9766 187.189 19.1113C187.505 19.2461 187.962 19.3809 188.56 19.5156C189.339 19.6914 189.981 19.9023 190.485 20.1484C190.988 20.3945 191.363 20.6963 191.61 21.0537C191.856 21.4111 191.979 21.8477 191.979 22.3633C191.979 22.9141 191.826 23.4033 191.522 23.8311C191.217 24.2529 190.789 24.584 190.238 24.8242C189.688 25.0586 189.04 25.1758 188.296 25.1758C187.458 25.1758 186.749 25.0264 186.169 24.7275C185.589 24.4287 185.15 24.0449 184.851 23.5762C184.552 23.1016 184.403 22.6006 184.403 22.0732H186.046C186.075 22.5186 186.204 22.873 186.433 23.1367C186.667 23.3945 186.951 23.5791 187.285 23.6904C187.625 23.8018 187.962 23.8574 188.296 23.8574C188.741 23.8574 189.113 23.7988 189.412 23.6816C189.717 23.5586 189.945 23.3945 190.098 23.1895C190.256 22.9785 190.335 22.7412 190.335 22.4775ZM196.241 25H194.597V15.4902H196.241V25ZM194.474 12.959C194.474 12.7012 194.554 12.4814 194.712 12.2998C194.876 12.1182 195.116 12.0273 195.432 12.0273C195.749 12.0273 195.989 12.1182 196.153 12.2998C196.323 12.4814 196.408 12.7012 196.408 12.959C196.408 13.2109 196.323 13.4277 196.153 13.6094C195.989 13.7852 195.749 13.873 195.432 13.873C195.116 13.873 194.876 13.7852 194.712 13.6094C194.554 13.4277 194.474 13.2109 194.474 12.959ZM206.849 15.4902V24.7979C206.849 25.6357 206.676 26.3506 206.331 26.9424C205.991 27.5342 205.516 27.9824 204.907 28.2871C204.303 28.5977 203.606 28.7529 202.815 28.7529C202.487 28.7529 202.1 28.7002 201.655 28.5947C201.215 28.4951 200.782 28.3223 200.354 28.0762C199.932 27.8359 199.578 27.5107 199.29 27.1006L200.143 26.1426C200.541 26.623 200.957 26.957 201.391 27.1445C201.831 27.3379 202.264 27.4346 202.692 27.4346C203.459 27.4346 204.069 27.2148 204.52 26.7754C204.977 26.3418 205.206 25.709 205.206 24.877V17.582L205.355 15.4902H206.849ZM198.807 20.166C198.807 19.1992 198.959 18.3525 199.264 17.626C199.569 16.8936 200.002 16.3252 200.565 15.9209C201.127 15.5166 201.795 15.3145 202.569 15.3145C203.166 15.3145 203.688 15.4199 204.133 15.6309C204.584 15.8359 204.965 16.1348 205.276 16.5273C205.592 16.9199 205.841 17.3945 206.023 17.9512C206.21 18.5078 206.339 19.1348 206.41 19.832V20.6846C206.322 21.6045 206.125 22.4014 205.821 23.0752C205.522 23.7432 205.103 24.2617 204.564 24.6309C204.025 24.9941 203.354 25.1758 202.551 25.1758C201.79 25.1758 201.127 24.9678 200.565 24.5518C200.008 24.1299 199.575 23.5557 199.264 22.8291C198.959 22.1025 198.807 21.2764 198.807 20.3506V20.166ZM200.451 20.3506C200.451 20.9834 200.536 21.5605 200.706 22.082C200.881 22.6035 201.154 23.0225 201.523 23.3389C201.892 23.6494 202.37 23.8047 202.956 23.8047C203.495 23.8047 203.937 23.6904 204.283 23.4619C204.628 23.2334 204.907 22.9316 205.118 22.5566C205.329 22.1816 205.493 21.7744 205.61 21.335V19.1992C205.54 18.877 205.44 18.5664 205.311 18.2676C205.182 17.9629 205.012 17.6934 204.801 17.459C204.59 17.2188 204.332 17.0283 204.028 16.8877C203.729 16.7471 203.377 16.6768 202.973 16.6768C202.381 16.6768 201.898 16.835 201.523 17.1514C201.154 17.4678 200.881 17.8926 200.706 18.4258C200.536 18.9531 200.451 19.5332 200.451 20.166V20.3506ZM211.305 25H209.661V15.4902H211.217L211.305 17.5205V25ZM210.233 19.8496C210.244 18.9824 210.411 18.209 210.733 17.5293C211.056 16.8438 211.504 16.3047 212.078 15.9121C212.658 15.5137 213.332 15.3145 214.1 15.3145C214.727 15.3145 215.266 15.4316 215.717 15.666C216.174 15.8945 216.525 16.2607 216.772 16.7646C217.024 17.2686 217.15 17.9365 217.15 18.7686V25H215.506V18.751C215.506 18.2529 215.433 17.8516 215.286 17.5469C215.146 17.2422 214.935 17.0225 214.653 16.8877C214.372 16.7471 214.026 16.6768 213.616 16.6768C213.212 16.6768 212.846 16.7617 212.518 16.9316C212.19 17.1016 211.905 17.3359 211.665 17.6348C211.425 17.9336 211.24 18.2764 211.111 18.6631C210.983 19.0439 210.918 19.4482 210.918 19.876L210.233 19.8496ZM226.289 24.376C226.289 24.9092 226.155 25.4717 225.885 26.0635C225.616 26.6553 225.235 27.1504 224.743 27.5488L223.811 26.916C223.998 26.6582 224.157 26.3975 224.286 26.1338C224.414 25.8701 224.511 25.5947 224.576 25.3076C224.646 25.0205 224.681 24.7188 224.681 24.4023V23.0752H226.289V24.376ZM235.104 19.9814V18.6104H238.514C239.176 18.6104 239.71 18.5049 240.114 18.2939C240.524 18.0771 240.823 17.7812 241.01 17.4062C241.204 17.0312 241.3 16.6035 241.3 16.123C241.3 15.6836 241.204 15.2705 241.01 14.8838C240.823 14.4971 240.524 14.1836 240.114 13.9434C239.71 13.7031 239.176 13.583 238.514 13.583H235.491V25H233.786V12.2031H238.514C239.481 12.2031 240.298 12.3701 240.966 12.7041C241.634 13.0381 242.141 13.498 242.487 14.084C242.833 14.6699 243.006 15.3438 243.006 16.1055C243.006 16.9258 242.833 17.626 242.487 18.2061C242.141 18.7861 241.634 19.2285 240.966 19.5332C240.298 19.832 239.481 19.9814 238.514 19.9814H235.104ZM250.766 18.4785C250.766 17.9102 250.596 17.459 250.256 17.125C249.922 16.7852 249.427 16.6152 248.771 16.6152C248.366 16.6152 248.009 16.6855 247.699 16.8262C247.394 16.9668 247.157 17.1514 246.987 17.3799C246.817 17.6084 246.732 17.8574 246.732 18.127H245.088C245.088 17.6699 245.243 17.2275 245.554 16.7998C245.865 16.3662 246.301 16.0117 246.864 15.7363C247.432 15.4551 248.1 15.3145 248.867 15.3145C249.559 15.3145 250.171 15.4316 250.704 15.666C251.238 15.9004 251.654 16.2549 251.952 16.7295C252.257 17.1982 252.409 17.7871 252.409 18.4961V22.9258C252.409 23.2422 252.436 23.5791 252.489 23.9365C252.547 24.2939 252.632 24.6016 252.743 24.8594V25H251.03C250.948 24.8125 250.883 24.5635 250.836 24.2529C250.789 23.9365 250.766 23.6436 250.766 23.374V18.4785ZM251.065 20.377H249.43C248.504 20.377 247.789 20.5234 247.285 20.8164C246.782 21.1094 246.53 21.5488 246.53 22.1348C246.53 22.5918 246.682 22.9785 246.987 23.2949C247.297 23.6113 247.748 23.7695 248.34 23.7695C248.838 23.7695 249.278 23.6641 249.658 23.4531C250.039 23.2422 250.341 22.9814 250.564 22.6709C250.786 22.3604 250.907 22.0615 250.924 21.7744L251.627 22.5566C251.586 22.8027 251.475 23.0752 251.293 23.374C251.112 23.6729 250.868 23.96 250.564 24.2354C250.265 24.5049 249.908 24.7305 249.491 24.9121C249.081 25.0879 248.618 25.1758 248.103 25.1758C247.458 25.1758 246.893 25.0527 246.407 24.8066C245.926 24.5547 245.551 24.2148 245.282 23.7871C245.018 23.3594 244.886 22.8848 244.886 22.3633C244.886 21.3379 245.273 20.5615 246.046 20.0342C246.82 19.501 247.86 19.2344 249.166 19.2344H251.047L251.065 20.377ZM259.326 16.7295H254.176V15.4902H259.326V16.7295ZM257.551 13.1787V22.6445C257.551 22.9727 257.601 23.2188 257.7 23.3828C257.8 23.5469 257.929 23.6553 258.087 23.708C258.245 23.7607 258.415 23.7871 258.597 23.7871C258.731 23.7871 258.872 23.7754 259.018 23.752C259.171 23.7285 259.282 23.708 259.352 23.6904L259.361 25C259.232 25.041 259.062 25.0791 258.851 25.1143C258.646 25.1553 258.397 25.1758 258.104 25.1758C257.706 25.1758 257.34 25.0967 257.006 24.9385C256.672 24.7803 256.405 24.5166 256.206 24.1475C256.007 23.7725 255.907 23.2686 255.907 22.6357V13.1787H257.551ZM265.575 16.7295H260.424V15.4902H265.575V16.7295ZM263.799 13.1787V22.6445C263.799 22.9727 263.849 23.2188 263.949 23.3828C264.048 23.5469 264.177 23.6553 264.336 23.708C264.494 23.7607 264.664 23.7871 264.845 23.7871C264.98 23.7871 265.121 23.7754 265.267 23.752C265.42 23.7285 265.531 23.708 265.601 23.6904L265.61 25C265.481 25.041 265.311 25.0791 265.1 25.1143C264.895 25.1553 264.646 25.1758 264.353 25.1758C263.955 25.1758 263.588 25.0967 263.254 24.9385C262.92 24.7803 262.654 24.5166 262.455 24.1475C262.255 23.7725 262.156 23.2686 262.156 22.6357V13.1787H263.799ZM271.78 25.1758C270.895 25.1758 270.124 24.9795 269.468 24.5869C268.818 24.1885 268.311 23.6436 267.947 22.9521C267.59 22.2607 267.411 21.4697 267.411 20.5791V20.2012C267.411 19.1699 267.608 18.291 268 17.5645C268.399 16.832 268.914 16.2754 269.547 15.8945C270.186 15.5078 270.86 15.3145 271.569 15.3145C272.483 15.3145 273.227 15.5195 273.801 15.9297C274.381 16.334 274.806 16.8877 275.075 17.5908C275.351 18.2881 275.488 19.0791 275.488 19.9639V20.6934H268.387V19.375H273.845V19.252C273.821 18.8301 273.737 18.4199 273.59 18.0215C273.444 17.6172 273.209 17.2861 272.887 17.0283C272.565 16.7646 272.125 16.6328 271.569 16.6328C271.076 16.6328 270.64 16.7734 270.259 17.0547C269.884 17.3301 269.588 17.7344 269.371 18.2676C269.16 18.7949 269.055 19.4395 269.055 20.2012V20.5791C269.055 21.1826 269.166 21.7334 269.389 22.2314C269.612 22.7236 269.934 23.1191 270.356 23.418C270.778 23.7109 271.281 23.8574 271.867 23.8574C272.442 23.8574 272.928 23.7402 273.326 23.5059C273.725 23.2715 274.073 22.958 274.372 22.5654L275.365 23.3389C275.061 23.8076 274.621 24.2324 274.047 24.6133C273.479 24.9883 272.723 25.1758 271.78 25.1758ZM279.39 25H277.747V15.4902H279.347L279.39 16.9844V25ZM282.352 16.9404C282.212 16.9111 282.08 16.8936 281.957 16.8877C281.84 16.876 281.705 16.8701 281.553 16.8701C281.055 16.8701 280.633 16.9727 280.287 17.1777C279.947 17.3828 279.683 17.667 279.496 18.0303C279.308 18.3877 279.191 18.7979 279.144 19.2607L278.679 19.5244C278.679 18.7568 278.781 18.0566 278.986 17.4238C279.191 16.7852 279.511 16.2754 279.944 15.8945C280.384 15.5078 280.946 15.3145 281.632 15.3145C281.743 15.3145 281.875 15.3291 282.027 15.3584C282.185 15.3818 282.294 15.4082 282.352 15.4375V16.9404ZM285.85 25H284.207V15.4902H285.762L285.85 17.5205V25ZM284.778 19.8496C284.79 18.9824 284.957 18.209 285.279 17.5293C285.601 16.8438 286.049 16.3047 286.624 15.9121C287.204 15.5137 287.877 15.3145 288.645 15.3145C289.272 15.3145 289.811 15.4316 290.262 15.666C290.719 15.8945 291.071 16.2607 291.317 16.7646C291.569 17.2686 291.695 17.9365 291.695 18.7686V25H290.051V18.751C290.051 18.2529 289.978 17.8516 289.832 17.5469C289.691 17.2422 289.48 17.0225 289.199 16.8877C288.917 16.7471 288.572 16.6768 288.162 16.6768C287.757 16.6768 287.391 16.7617 287.063 16.9316C286.735 17.1016 286.451 17.3359 286.21 17.6348C285.97 17.9336 285.786 18.2764 285.657 18.6631C285.528 19.0439 285.463 19.4482 285.463 19.876L284.778 19.8496Z" fill="black" fill-opacity="0.7"/>
</svg>
